<?xml version="1.0" encoding="UTF-8" standalone="no"?>
<svg
   xmlns:dc="http://purl.org/dc/elements/1.1/"
   xmlns:cc="http://creativecommons.org/ns#"
   xmlns:rdf="http://www.w3.org/1999/02/22-rdf-syntax-ns#"
   xmlns:svg="http://www.w3.org/2000/svg"
   xmlns="http://www.w3.org/2000/svg"
   xmlns:sodipodi="http://sodipodi.sourceforge.net/DTD/sodipodi-0.dtd"
   xmlns:inkscape="http://www.inkscape.org/namespaces/inkscape"
   width="250pt"
   height="250pt"
   viewBox="0 0 250 250"
   version="1.1"
   id="svg1237"
   sodipodi:docname="defacto2-floppy_disk_icon-inkscape.svg"
   shape-rendering="crispEdges"
   inkscape:version="1.0.2 (e86c870879, 2021-01-15)">
  <metadata
     id="metadata1243">
    <rdf:RDF>
      <cc:Work
         rdf:about="">
        <dc:format>image/svg+xml</dc:format>
        <dc:type
           rdf:resource="http://purl.org/dc/dcmitype/StillImage" />
        <dc:title></dc:title>
      </cc:Work>
    </rdf:RDF>
  </metadata>
  <defs
     id="defs1241" />
  <sodipodi:namedview
     pagecolor="#ffffff"
     bordercolor="#666666"
     borderopacity="1"
     objecttolerance="10"
     gridtolerance="10"
     guidetolerance="10"
     inkscape:pageopacity="0"
     inkscape:pageshadow="2"
     inkscape:window-width="2029"
     inkscape:window-height="1236"
     id="namedview1239"
     showgrid="false"
     inkscape:pagecheckerboard="true"
     showguides="true"
     inkscape:guide-bbox="true"
     inkscape:zoom="3.024"
     inkscape:cx="166.66667"
     inkscape:cy="166.66667"
     inkscape:window-x="0"
     inkscape:window-y="49"
     inkscape:window-maximized="0"
     inkscape:current-layer="svg1237">
    <sodipodi:guide
       position="283.73015,234.87102"
       orientation="0,-1"
       id="guide1245" />
    <sodipodi:guide
       position="80.605156,15.873015"
       orientation="0,-1"
       id="guide1247" />
    <sodipodi:guide
       position="235.11904,64.980157"
       orientation="1,0"
       id="guide1249" />
    <sodipodi:guide
       position="15.873015,93.998013"
       orientation="1,0"
       id="guide1251" />
  </sodipodi:namedview>
  <path
     fill="#1524eb"
     d=" M 32.02 15.00 C 47.68 15.01 63.34 15.01 79.01 15.00 C 78.96 41.00 79.04 67.00 79.00 93.00 C 120.67 93.01 162.33 92.99 204.00 93.01 C 203.98 72.34 204.02 51.67 204.00 31.00 C 208.99 31.00 213.99 31.00 218.98 31.00 C 218.99 34.75 219.02 42.23 219.03 45.97 C 224.35 45.99 229.67 46.00 235.00 46.02 C 235.00 108.68 235.00 171.34 235.00 234.00 C 162.00 234.00 89.00 234.00 16.00 234.00 C 16.00 166.34 16.00 98.68 16.00 31.01 C 21.33 31.00 26.65 30.99 31.98 30.98 C 31.99 25.65 32.01 20.32 32.02 15.00 Z"
     id="path1225" />
  <path
     fill="#cbcbcb"
     d=" M 79.01 15.00 C 120.67 15.00 162.33 15.00 204.00 15.00 C 203.99 20.33 203.99 25.67 204.00 31.00 C 204.02 51.67 203.98 72.34 204.00 93.01 C 162.33 92.99 120.67 93.01 79.00 93.00 C 79.04 67.00 78.96 41.00 79.01 15.00 Z"
     id="path1227" />
  <path
     fill="#1524eb"
     d=" M 157.00 30.99 C 167.33 31.02 177.67 31.02 188.01 30.99 C 187.99 46.66 187.99 62.33 188.00 78.01 C 177.67 77.98 167.33 77.98 156.99 78.01 C 157.01 62.34 157.01 46.66 157.00 30.99 Z"
     id="path1229" />
  <path
     fill="#ffffff"
     d=" M 63.02 109.00 C 104.67 109.00 146.32 109.00 187.98 109.00 C 187.99 114.32 188.00 119.65 188.02 124.98 C 193.34 124.99 198.67 125.00 204.00 125.02 C 203.98 151.01 204.02 177.01 204.00 203.00 C 203.99 208.00 204.00 213.00 204.00 218.00 C 151.67 217.99 99.33 218.01 47.00 218.00 C 47.00 212.99 47.00 208.00 47.00 203.00 C 46.98 177.00 47.01 151.01 47.00 125.01 C 52.33 125.00 57.65 124.99 62.98 124.98 C 62.99 119.65 63.00 114.32 63.02 109.00 Z"
     id="path1231" />
  <path
     fill="#000000"
     d=" M 32.00 203.00 C 37.00 202.99 42.00 203.00 47.00 203.00 C 47.00 208.00 47.00 212.99 47.00 218.00 C 42.00 217.99 37.00 218.01 32.00 218.00 C 32.00 214.25 32.00 206.75 32.00 203.00 Z"
     id="path1233" />
  <path
     fill="#000000"
     d=" M 204.00 203.00 C 208.99 203.00 214.00 203.00 219.00 203.00 C 219.00 206.75 219.00 214.25 219.00 218.00 C 213.99 217.99 209.00 217.99 204.00 218.00 C 204.00 213.00 203.99 208.00 204.00 203.00 Z"
     id="path1235" />
</svg>
